<?xml version="1.0" encoding="utf-8"?>
<!-- Generator: Adobe Illustrator 16.0.0, SVG Export Plug-In . SVG Version: 6.00 Build 0)  -->
<!DOCTYPE svg PUBLIC "-//W3C//DTD SVG 1.1//EN" "http://www.w3.org/Graphics/SVG/1.1/DTD/svg11.dtd">
<svg version="1.1" id="Layer_1" xmlns:sketch="http://www.bohemiancoding.com/sketch/ns"
	 xmlns="http://www.w3.org/2000/svg" xmlns:xlink="http://www.w3.org/1999/xlink" x="0px" y="0px" width="215.47px"
	 height="49.809px" viewBox="0 0 215.47 49.809" enable-background="new 0 0 215.47 49.809" xml:space="preserve">
<title>logo_alpaca</title>
<desc>Created with Sketch.</desc>
<g>
	<g>
		<g>
			<path fill="#4E4E4E" d="M151.847,32.314h-9.155c-0.028,0-0.055-0.003-0.076-0.003c-1.376-0.117-3.979-1.116-3.979-4.048v-6
				c0-2.932,2.601-3.929,3.979-4.049c0.021-0.003,0.047-0.003,0.076-0.003h9.155c0.483,0,0.876,0.393,0.876,0.873
				c0,0.482-0.393,0.874-0.876,0.874h-9.111c-0.354,0.038-2.354,0.353-2.354,2.306v6c0,1.945,1.991,2.265,2.354,2.308h9.111
				c0.483,0,0.876,0.392,0.876,0.869C152.723,31.925,152.33,32.314,151.847,32.314z"/>
		</g>
		<g>
			<path fill="#4E4E4E" d="M166.751,32.314c-0.48,0-0.87-0.389-0.87-0.874V19.322c0-0.479,0.39-0.871,0.87-0.871
				c0.484,0,0.873,0.388,0.873,0.871V31.44C167.625,31.925,167.233,32.314,166.751,32.314z"/>
		</g>
		<g>
			<path fill="#4E4E4E" d="M154.468,32.314c-0.482,0-0.873-0.389-0.873-0.874V19.084c0-0.48,0.391-0.873,0.873-0.873
				c0.484,0,0.875,0.393,0.875,0.873V31.44C155.343,31.925,154.952,32.314,154.468,32.314z"/>
		</g>
		<g>
			<path fill="#4E4E4E" d="M196.692,32.314c-0.229,0-0.451-0.091-0.619-0.257l-10.796-10.858V31.44c0,0.485-0.389,0.874-0.869,0.874
				c-0.481,0-0.871-0.389-0.871-0.874V19.084c0-0.353,0.214-0.669,0.542-0.807c0.323-0.134,0.701-0.061,0.95,0.193l10.79,10.856
				V19.084c0-0.48,0.391-0.873,0.874-0.873c0.479,0,0.871,0.393,0.871,0.873V31.44c0,0.354-0.213,0.675-0.54,0.808
				C196.914,32.292,196.802,32.314,196.692,32.314z"/>
		</g>
		<g>
			<path fill="#4E4E4E" d="M136.945,32.239c-0.479,0-0.87-0.391-0.87-0.872v-9.068c0-1.947-1.99-2.264-2.357-2.306h-5.833
				c-0.354,0.04-2.352,0.354-2.352,2.306v9.071c0,0.479-0.39,0.869-0.874,0.869c-0.477,0-0.868-0.391-0.868-0.869v-9.071
				c0-2.93,2.6-3.928,3.974-4.048c0.026,0,0.054-0.003,0.077-0.003h5.923c0.026,0,0.052,0.001,0.078,0.003
				c1.375,0.121,3.975,1.119,3.975,4.048v9.068C137.816,31.848,137.425,32.239,136.945,32.239z"/>
		</g>
		<g>
			<path fill="#4E4E4E" d="M212.093,32.239h-10.644c-0.674,0-1.267-0.245-1.71-0.722c-0.915-0.982-0.875-2.613-0.861-2.918v-6.673
				c-0.017-0.302-0.054-1.942,0.861-2.92c0.443-0.473,1.034-0.718,1.71-0.718h10.644c0.486,0,0.878,0.39,0.878,0.87
				c0,0.483-0.39,0.872-0.878,0.872h-10.644c-0.248,0-0.353,0.084-0.433,0.167c-0.351,0.375-0.416,1.289-0.395,1.646
				c0,0.021,0,0.039,0,0.06v6.722c0,0.021,0,0.038,0,0.055c-0.022,0.374,0.044,1.278,0.395,1.651
				c0.081,0.08,0.191,0.163,0.433,0.163h10.644c0.486,0,0.878,0.392,0.878,0.871C212.968,31.848,212.579,32.239,212.093,32.239z"/>
		</g>
		<g>
			<path fill="#4E4E4E" d="M212.093,26.135h-12.34c-0.484,0-0.874-0.395-0.874-0.871c0-0.482,0.39-0.873,0.874-0.873h12.34
				c0.486,0,0.878,0.39,0.878,0.873C212.968,25.74,212.579,26.135,212.093,26.135z"/>
		</g>
		<g>
			<path fill="#4E4E4E" d="M122.173,32.239c-0.318,0-0.622-0.171-0.775-0.473l-5.746-11.164l-5.062,5.246
				c-0.328,0.339-0.926,0.339-1.255,0l-5.061-5.246l-5.747,11.164c-0.219,0.428-0.744,0.599-1.174,0.375
				c-0.428-0.219-0.598-0.748-0.374-1.174l6.305-12.247c0.129-0.25,0.368-0.422,0.647-0.462c0.28-0.044,0.558,0.057,0.754,0.257
				l5.283,5.473l5.272-5.473c0.2-0.201,0.479-0.3,0.756-0.257c0.28,0.041,0.521,0.212,0.651,0.462l6.305,12.247
				c0.223,0.426,0.049,0.955-0.376,1.174C122.444,32.209,122.308,32.239,122.173,32.239z"/>
		</g>
		<g>
			<path fill="#4E4E4E" d="M136.751,26.135L136.751,26.135l-11.938-0.018c-0.484-0.003-0.874-0.393-0.874-0.876
				c0-0.479,0.39-0.868,0.874-0.868h0.002l11.937,0.019c0.484,0,0.877,0.39,0.872,0.873
				C137.622,25.746,137.234,26.135,136.751,26.135z"/>
		</g>
		<g>
			<path fill="#4E4E4E" d="M166.624,26.135h-0.003l-12.037-0.018c-0.482-0.003-0.874-0.393-0.874-0.876
				c0.006-0.479,0.392-0.868,0.874-0.868l0,0l12.043,0.019c0.477,0,0.871,0.39,0.868,0.873
				C167.496,25.746,167.103,26.135,166.624,26.135z"/>
		</g>
		<g>
			<path fill="#4E4E4E" d="M181.785,20.023h-12.359c-0.478,0-0.872-0.389-0.872-0.873c0-0.479,0.395-0.872,0.872-0.872h12.359
				c0.478,0,0.867,0.393,0.867,0.872C182.653,19.635,182.266,20.023,181.785,20.023z"/>
		</g>
		<g>
			<path fill="#4E4E4E" d="M181.788,32.309h-12.358c-0.479,0-0.873-0.389-0.873-0.871c0-0.484,0.394-0.873,0.873-0.873h12.358
				c0.479,0,0.871,0.389,0.871,0.873C182.662,31.92,182.267,32.309,181.788,32.309z"/>
		</g>
		<g>
			<path fill="#4E4E4E" d="M175.589,32.194L175.589,32.194c-0.483,0-0.878-0.395-0.878-0.878l0.025-11.995
				c0.003-0.481,0.393-0.871,0.87-0.871l0,0c0.486,0,0.876,0.393,0.876,0.872L176.46,31.32
				C176.46,31.799,176.066,32.194,175.589,32.194z"/>
		</g>
	</g>
	<g>
		<g>
			<g>
				<path fill="#4E4E4E" d="M32.608,18.134h9.305c0.027,0,0.054,0.003,0.078,0.003c1.399,0.123,4.043,1.137,4.043,4.114v6.099
					c0,2.976-2.646,3.993-4.043,4.116c-0.025,0.003-0.051,0.003-0.078,0.003h-9.305c-0.489,0-0.887-0.399-0.887-0.885
					c0-0.49,0.397-0.888,0.887-0.888h9.261c0.357-0.042,2.391-0.359,2.391-2.346v-6.097c0-1.975-2.02-2.301-2.391-2.344h-9.261
					c-0.489,0-0.887-0.395-0.887-0.884C31.72,18.531,32.117,18.134,32.608,18.134z"/>
			</g>
			<g>
				<path fill="#4E4E4E" d="M32.609,32.464c-0.491,0-0.889-0.398-0.889-0.886V19.019c0-0.488,0.397-0.887,0.889-0.887
					c0.489,0,0.886,0.398,0.886,0.887v12.559C33.495,32.066,33.098,32.464,32.609,32.464z"/>
			</g>
		</g>
		<g>
			<g>
				<path fill="#4E4E4E" d="M60.841,32.464H49.909c-0.693,0-1.301-0.255-1.754-0.734c-0.944-1.011-0.903-2.692-0.887-3.003v-6.851
					c-0.018-0.312-0.058-1.997,0.887-3c0.453-0.485,1.061-0.74,1.754-0.74h10.932c0.497,0,0.896,0.4,0.896,0.894
					c0,0.496-0.399,0.896-0.896,0.896H49.909c-0.255,0-0.365,0.088-0.448,0.173c-0.36,0.382-0.429,1.321-0.405,1.687
					c0,0.024,0.001,0.043,0.001,0.063v6.901c0,0.021-0.001,0.041-0.001,0.056c-0.021,0.389,0.046,1.313,0.405,1.696
					c0.082,0.084,0.194,0.172,0.448,0.172h10.932c0.497,0,0.896,0.4,0.896,0.891C61.738,32.064,61.338,32.464,60.841,32.464z"/>
			</g>
			<g>
				<path fill="#4E4E4E" d="M60.841,26.194H48.164c-0.496,0-0.896-0.4-0.896-0.892c0-0.495,0.399-0.898,0.896-0.898h12.677
					c0.497,0,0.896,0.402,0.896,0.898C61.738,25.793,61.338,26.194,60.841,26.194z"/>
			</g>
		</g>
		<g>
			<g>
				<path fill="#4E4E4E" d="M76.55,32.464H65.618c-0.694,0-1.298-0.255-1.755-0.734c-0.94-1.011-0.902-2.692-0.883-3.003v-6.851
					c-0.019-0.312-0.058-1.997,0.883-3c0.456-0.485,1.062-0.74,1.755-0.74H76.55c0.495,0,0.895,0.4,0.895,0.894
					c0,0.496-0.4,0.896-0.895,0.896H65.618c-0.25,0-0.364,0.088-0.445,0.173c-0.362,0.382-0.43,1.321-0.404,1.687
					c0,0.024,0.001,0.043,0.001,0.063v6.901c0,0.021-0.001,0.041-0.001,0.056c-0.024,0.389,0.045,1.313,0.404,1.696
					c0.081,0.084,0.194,0.172,0.445,0.172H76.55c0.495,0,0.895,0.4,0.895,0.891C77.446,32.064,77.044,32.464,76.55,32.464z"/>
			</g>
			<g>
				<path fill="#4E4E4E" d="M76.55,26.194H63.876c-0.496,0-0.895-0.4-0.895-0.892c0-0.495,0.399-0.898,0.895-0.898H76.55
					c0.495,0,0.895,0.402,0.895,0.898C77.446,25.793,77.044,26.194,76.55,26.194z"/>
			</g>
		</g>
		<g>
			<g>
				<g>
					<line fill="none" x1="79.561" y1="18.944" x2="79.561" y2="31.585"/>
				</g>
				<g>
					<path fill="#4E4E4E" d="M79.561,32.464c-0.484,0-0.88-0.395-0.88-0.881V18.944c0-0.488,0.394-0.884,0.88-0.884
						c0.487,0,0.885,0.396,0.885,0.884v12.639C80.446,32.07,80.048,32.464,79.561,32.464z"/>
				</g>
			</g>
			<g>
				<g>
					<path fill="#4E4E4E" d="M88.652,26.149c-0.07,0-0.127,0-0.162-0.003h-8.786c-0.488,0-0.883-0.396-0.883-0.882
						s0.394-0.878,0.883-0.878h8.81c0.02,0,0.038,0,0.06,0.003c0.009,0,1.251,0.063,1.994-0.637
						c0.393-0.373,0.587-0.913,0.587-1.648c0-0.737-0.195-1.277-0.595-1.654c-0.733-0.682-1.976-0.63-1.986-0.628
						c-0.02,0.002-0.038,0.002-0.059,0.002h-8.81c-0.487,0-0.883-0.396-0.883-0.877c0-0.489,0.394-0.884,0.883-0.884h8.787
						c0.288-0.011,2.046-0.042,3.27,1.102c0.768,0.714,1.155,1.706,1.155,2.941c0,1.238-0.391,2.227-1.155,2.94
						C90.684,26.052,89.191,26.149,88.652,26.149z"/>
				</g>
			</g>
		</g>
	</g>
	<g>
		<polygon fill="#758E53" points="21.227,46.456 19.394,46.456 16.278,19.317 18.113,19.317 		"/>
		<polygon fill="#8B9E6F" points="18.122,19.317 16.288,19.317 10.766,33.125 12.6,33.125 		"/>
		<polygon fill="#B04B3A" points="7.001,11.113 8.832,11.113 12.618,33.125 10.784,33.125 		"/>
		<polygon fill="#587D38" points="26.3,4.072 25.088,5.986 19.922,46.456 21.756,46.456 26.922,5.986 		"/>
		<polygon fill="#A11E21" points="2.461,40.164 3.672,38.253 8.837,11.113 7.005,11.113 1.838,38.253 		"/>
	</g>
</g>
</svg>
