<?xml version="1.0" encoding="utf-8"?>
<!-- Generator: Adobe Illustrator 16.0.0, SVG Export Plug-In . SVG Version: 6.00 Build 0)  -->
<!DOCTYPE svg PUBLIC "-//W3C//DTD SVG 1.1//EN" "http://www.w3.org/Graphics/SVG/1.1/DTD/svg11.dtd">
<svg version="1.1" id="Layer_1" xmlns="http://www.w3.org/2000/svg" xmlns:xlink="http://www.w3.org/1999/xlink" x="0px" y="0px"
	 width="24px" height="24px" viewBox="0 0 24 24" enable-background="new 0 0 24 24" xml:space="preserve">
<g>
	<g>
		<path fill="none" d="M5.791,14.105c0.061,0.118,0.163,0.212,0.287,0.265l2.271-2.561L5.791,14.105z"/>
		<polygon fill="none" points="4.806,14.989 0.059,19.248 0.982,20.113 4.896,15.701 4.806,15.701 		"/>
		<path fill="#699458" d="M4.806,2.337v11.704l0.922-0.829V4.205c0-0.313,0.253-0.565,0.566-0.565h15.618
			c0.314,0,0.566,0.252,0.566,0.565v9.64c0,0.315-0.252,0.568-0.566,0.568H6.984L5.84,15.701h3.323h10.013h4.162V2.337H4.806z"/>
		<path d="M5.791,14.105l-0.985,0.884v0.712h0.09l1.182-1.331C5.954,14.317,5.852,14.224,5.791,14.105z"/>
	</g>
	<rect x="4.204" y="1.799" fill="#699458" width="19.737" height="2.251"/>
	<rect x="9.949" y="6.925" fill="#699458" width="1.783" height="6.145"/>
	<rect x="12.886" y="9.998" fill="#699458" width="1.784" height="3.071"/>
	<rect x="15.778" y="7.992" fill="#699458" width="1.785" height="5.078"/>
	<rect x="18.586" y="5.041" fill="#699458" width="1.785" height="8.028"/>
	<g>
		<polygon fill="#699458" points="0.059,19.248 0.982,20.113 8.349,11.81 		"/>
		<path fill="#699458" d="M0.982,20.113l-0.923-0.865l8.291-7.438L0.982,20.113z"/>
	</g>
	<g>
		<polygon fill="#699458" points="9.979,22.201 11.916,14.906 10.101,14.915 8.125,22.201 		"/>
		<polygon fill="#699458" points="18.163,22.201 16.227,14.906 18.04,14.915 20.02,22.201 		"/>
	</g>
</g>
</svg>
