<?xml version="1.0" encoding="utf-8"?>
<!-- Generator: Adobe Illustrator 16.0.0, SVG Export Plug-In . SVG Version: 6.00 Build 0)  -->
<!DOCTYPE svg PUBLIC "-//W3C//DTD SVG 1.1//EN" "http://www.w3.org/Graphics/SVG/1.1/DTD/svg11.dtd">
<svg version="1.1" id="Layer_1" xmlns="http://www.w3.org/2000/svg" xmlns:xlink="http://www.w3.org/1999/xlink" x="0px" y="0px"
	 width="24px" height="24.941px" viewBox="0 0 24 24.941" enable-background="new 0 0 24 24.941" xml:space="preserve">
<g>
	<g>
		<path fill="#699458" d="M22.288,15.734c-1.402,0.085-3.248,1.488-5.026,2.294c-2.181,0.985-5.576,0.192-5.576,0.192
			c0.524-0.245,2.651-0.752,3.081-0.94c2.277-1.002,2.084-3.092,1-3.074c-1.434,0.023-2.275,0.376-5.136,0.766
			c-2.167,0.296-4.731,0.188-5.961,0.657c-1.736,0.663-4.532,5.123-4.532,5.123l4.323,4.189c0,0,2.676-2.636,3.979-2.636
			c2.967,0,3.087-0.04,5.842-0.188c1.172-0.063,1.417-0.11,2.087-0.338c3.571-1.208,7.406-4.423,7.477-4.81
			C24.009,16.074,23.029,15.688,22.288,15.734L22.288,15.734z M22.288,15.734"/>
	</g>
	<g>
		<g>
			<g>
				<path fill="#699458" d="M17.273,11.275l-0.797,2.552l2.68-0.029l-0.606-0.812l0.651-0.529c1.669-1.353,2.626-3.356,2.626-5.498
					c0-1.949-0.817-3.818-2.223-5.146L18.915,2.74c1.117,1.106,1.765,2.629,1.765,4.219c0,1.744-0.764,3.393-2.095,4.523
					l-0.709,0.601L17.273,11.275z"/>
			</g>
			<g>
				<path fill="#699458" d="M10.701,0.029l0.54,0.723l-0.703,0.522C8.717,2.625,7.673,4.697,7.673,6.959
					c0,1.962,0.786,3.782,2.181,5.112l0.692-0.931c-1.093-1.103-1.727-2.613-1.727-4.182c0-1.872,0.901-3.655,2.41-4.77l0.699-0.517
					l0.657,0.879L13.381,0L10.701,0.029z"/>
			</g>
		</g>
		<path fill="#699458" d="M9.625,7.751h1.577c0.172,0.205,0.427,0.338,0.715,0.338c0.196,0,0.376-0.059,0.525-0.16l1.718,1.353
			c-0.037,0.101-0.06,0.207-0.06,0.32c0,0.517,0.421,0.938,0.938,0.938c0.519,0,0.938-0.421,0.938-0.938
			c0-0.179-0.052-0.344-0.137-0.486L18.507,6c0.059,0.012,0.118,0.019,0.181,0.019c0.52,0,0.939-0.42,0.939-0.939
			c0-0.518-0.42-0.938-0.939-0.938c-0.519,0-0.938,0.421-0.938,0.938c0,0.241,0.093,0.457,0.241,0.623l-2.594,3.032
			c-0.11-0.045-0.231-0.071-0.358-0.071c-0.191,0-0.369,0.057-0.519,0.156L12.8,7.464c0.034-0.099,0.058-0.203,0.058-0.313
			c0-0.518-0.421-0.939-0.94-0.939c-0.518,0-0.938,0.421-0.938,0.939c0,0.005,0.002,0.009,0.002,0.014H9.625V7.751z"/>
	</g>
</g>
</svg>
