<?xml version="1.0" encoding="utf-8"?>
<!-- Generator: Adobe Illustrator 16.0.0, SVG Export Plug-In . SVG Version: 6.00 Build 0)  -->
<!DOCTYPE svg PUBLIC "-//W3C//DTD SVG 1.1//EN" "http://www.w3.org/Graphics/SVG/1.1/DTD/svg11.dtd">
<svg version="1.1" id="Layer_1" xmlns="http://www.w3.org/2000/svg" xmlns:xlink="http://www.w3.org/1999/xlink" x="0px" y="0px"
	 width="24px" height="24px" viewBox="0 0 24 24" enable-background="new 0 0 24 24" xml:space="preserve">
<g>
	<path fill="#699458" d="M4.87,10.29h2.248c0.245,0.292,0.608,0.481,1.021,0.481c0.277,0,0.534-0.084,0.748-0.229l2.448,1.93
		c-0.052,0.144-0.084,0.295-0.084,0.456c0,0.737,0.6,1.338,1.338,1.338c0.74,0,1.338-0.601,1.338-1.338
		c0-0.254-0.074-0.489-0.195-0.691l3.802-4.444c0.083,0.018,0.169,0.026,0.258,0.026c0.74,0,1.339-0.599,1.339-1.338
		c0-0.738-0.599-1.338-1.339-1.338c-0.739,0-1.338,0.6-1.338,1.338c0,0.343,0.134,0.652,0.345,0.888l-3.699,4.322
		c-0.156-0.065-0.329-0.102-0.51-0.102c-0.272,0-0.527,0.081-0.739,0.224L9.396,9.88c0.05-0.141,0.082-0.289,0.082-0.446
		c0-0.738-0.6-1.338-1.339-1.338s-1.338,0.6-1.338,1.338c0,0.008,0.003,0.013,0.003,0.02H4.87V10.29z"/>
	<g>
		<path fill="#699458" d="M0.075,1.106v17.196h5.608h12.885h5.356V1.106H0.075z M22.177,15.432c0,0.38-0.305,0.687-0.685,0.687
			H2.588c-0.378,0-0.685-0.307-0.685-0.687V3.764c0-0.377,0.307-0.685,0.685-0.685h18.904c0.38,0,0.685,0.308,0.685,0.685V15.432z"
			/>
	</g>
	<path fill="#699458" d="M9.507,18.182v1.017c-2.354,0.596-4.062,2.011-4.26,3.695h13.506c-0.198-1.685-1.906-3.1-4.261-3.695
		v-1.017"/>
</g>
</svg>
